<svg xmlns="http://www.w3.org/2000/svg" width="83" height="83" viewBox="0 0 83 83">
  <g id="Group_20" data-name="Group 20" transform="translate(-542 -142.764)">
    <g id="Ellipse_15" data-name="Ellipse 15" transform="translate(542 142.764)" fill="#42210b" stroke="#c69c6d" stroke-miterlimit="10" stroke-width="10">
      <circle cx="41.5" cy="41.5" r="41.5" stroke="none"/>
      <circle cx="41.5" cy="41.5" r="36.5" fill="none"/>
    </g>
    <g id="Group_19" data-name="Group 19">
      <path id="Path_60" data-name="Path 60" d="M609.116,187.068c.044-.931.074-1.966.074-3.208a25.99,25.99,0,0,0-12.019-21.914c3.485-2.112,3.155-6.365,3.155-6.365-4.35,3.44-8.545,3.186-12.364,2.71a26.185,26.185,0,0,0-3.242-.381c-.529-.046-1.05-.079-1.56-.079a25.944,25.944,0,0,0-25.292,32.088C567.641,183.111,584.187,177.556,609.116,187.068Z" fill="#79ccb8"/>
      <path id="Path_61" data-name="Path 61" d="M609.116,187.068c-24.929-9.512-41.475-3.957-51.248,2.851a25.994,25.994,0,0,0,47.242,7.895,11.542,11.542,0,0,1,3.694,4.106C608.236,193.507,608.888,191.848,609.116,187.068Z" fill="#3daa9d"/>
      <path id="Path_62" data-name="Path 62" d="M594.743,169.114a6.648,6.648,0,1,1-6.648-6.648A6.648,6.648,0,0,1,594.743,169.114Z" fill="#e2e2e2"/>
      <path id="Path_63" data-name="Path 63" d="M589.3,169.114a2.417,2.417,0,1,1-2.417-2.417A2.417,2.417,0,0,1,589.3,169.114Z" fill="#525c6b"/>
      <path id="Path_64" data-name="Path 64" d="M555.9,200.924a16.667,16.667,0,1,1,28.42-12.931C564.366,186.013,555.9,200.924,555.9,200.924Z" fill="#f1bb6b"/>
      <path id="Path_65" data-name="Path 65" d="M558.477,197.521c3.842-4.272,12.129-10.889,25.843-9.528.026.382.039.766.039,1.154a16.6,16.6,0,0,1-2.608,8.98,14.1,14.1,0,0,1-2.349,2.584C571.42,207.572,561.782,202.564,558.477,197.521Z" fill="#e49a61"/>
    </g>
  </g>
</svg>
