<svg id="Layer_1" data-name="Layer 1" xmlns="http://www.w3.org/2000/svg" viewBox="0 0 1041.87 655.41"><defs><style>.cls-1{fill:#e49a61;}.cls-2{fill:#ffbd66;}.cls-3{fill:#f1bb6b;}.cls-4{fill:#fddc85;}.cls-5{fill:#59c5ef;}.cls-6{fill:#2ba0bf;}</style></defs><title>food</title><path class="cls-1" d="M1074.32,400.23H1074a58.27,58.27,0,0,0-95.85-62.11h0a53.62,53.62,0,0,0-95.22,32.52h0a47,47,0,0,0-73.13,57.44l-.1,0v48.25l254.25-4.63Z" transform="translate(-439.13 -318.31)"/><path class="cls-2" d="M853.3,674.85H649.58A58.51,58.51,0,0,1,644,558.1h0a48.65,48.65,0,0,1,60.12-73.34c-9.45-16.45-6.11-38.28,8.33-51.85,16.88-15.87,44.42-13.46,60.27,3.44A41.94,41.94,0,0,1,853,457.58Z" transform="translate(-439.13 -318.31)"/><path class="cls-3" d="M1307.38,663.26A59.43,59.43,0,0,0,1258.67,559c18-27.47,11-64.65-16.47-82.63a59.46,59.46,0,0,0-66.87,1.23c5.93-42.43-26.7-84.53-69.14-90.47a77.64,77.64,0,0,0-80.4,42.7c-10.61-28.41-44.7-44.14-73.11-33.54a55,55,0,0,0-35.66,54h0a55.23,55.23,0,0,0-75.3,78.64V663.26Z" transform="translate(-439.13 -318.31)"/><path class="cls-4" d="M1080.49,731.34A47.85,47.85,0,0,0,1089,636.4l.06,0a37.87,37.87,0,0,0-54-51.67l-.11-.09a44.34,44.34,0,0,0-69-54.22h0A50.61,50.61,0,0,0,876,499.79l0,0a55,55,0,0,0-90.48,58.67h-.3a68.13,68.13,0,0,0-9.31-.64,70.26,70.26,0,1,0,0,140.52Z" transform="translate(-439.13 -318.31)"/><path class="cls-5" d="M1437.59,952l-77.84-272.4A43.4,43.4,0,0,0,1318,648.12H602.11a43.41,43.41,0,0,0-41.74,31.48L482.55,952Z" transform="translate(-439.13 -318.31)"/><path class="cls-6" d="M788.68,930.32l26-250.72c1.94-18.63,8.14-31.48,15.18-31.48H732.28c-12.34,0-23.17,12.85-26.56,31.48L660.13,930.32h-221v43.41H1481V930.32Z" transform="translate(-439.13 -318.31)"/></svg>