<svg id="Layer_1" data-name="Layer 1" xmlns="http://www.w3.org/2000/svg" viewBox="0 0 139.65 205.21"><defs><style>.cls-1{fill:#7a8e9b;}.cls-2{fill:#e49a61;}.cls-3{fill:#f1bb6b;}.cls-4{fill:#c6c6c6;}.cls-5{fill:#fff;}.cls-6{fill:#525c6b;}.cls-7{fill:#fddc85;}.cls-8{fill:#ffbd66;}</style></defs><title>neck</title><path class="cls-1" d="M1013.42,511.15c-11.75-15.24-34.93-25.61-61.61-25.61S902,495.91,890.2,511.15A37.06,37.06,0,0,1,882,488.38c0-26.72,31.26-48.38,69.82-48.38s69.83,21.66,69.83,48.38C1021.64,496.61,1018.66,504.36,1013.42,511.15Z" transform="translate(-881.99 -440)"/><path class="cls-2" d="M951.81,536.76c26.68,0,49.86-10.38,61.61-25.61,5.24-6.79,8.22-14.54,8.22-22.77v45.53c0,8.64-3.27,16.75-9,23.76H951.81Z" transform="translate(-881.99 -440)"/><path class="cls-3" d="M951.81,536.76c-26.68,0-49.86-10.38-61.61-25.61A37.06,37.06,0,0,1,882,488.38v45.53c0,10,4.38,19.29,11.88,27l-3.67-4.23c11.75,15.23,34.93,25.61,61.61,25.61,23.09,0,57.12,15.84,69.83,27.8V564.54C1008.92,552.59,974.89,536.76,951.81,536.76Z" transform="translate(-881.99 -440)"/><path class="cls-4" d="M960.86,537.45c-3.45-10.06-9.25-16.55-16-16.55-5.52,0-10.58,4.4-14.25,12.36l-.5,1.1c1.76.39,3.55.75,5.37,1,2.65-5.16,6-8,9.38-8,3.89,0,7.47,3.66,10.08,9.49s4.28,13.88,4.28,22.6c0,8.89-1.72,17-4.44,22.92-2.6,5.63-6.11,9.16-9.92,9.16-4,0-7.92-4-10.66-10.85-2-.36-4-.77-6-1.26l.69,2c3.12,9,8,14.89,13.48,16.26v17.92h4.92V597.76c5.34-1.3,9.93-6.8,13-14.83a67.07,67.07,0,0,0,3.9-23.44A68.59,68.59,0,0,0,960.86,537.45Z" transform="translate(-881.99 -440)"/><path class="cls-5" d="M1010.59,577.56c0,2.39-1.49,4.33-3.32,4.33S1004,580,1004,577.56s1.49-4.33,3.32-4.33S1010.59,575.16,1010.59,577.56Z" transform="translate(-881.99 -440)"/><path class="cls-2" d="M995.34,569.31c0,2.39-1.48,4.33-3.32,4.33s-3.32-1.94-3.32-4.33S990.19,565,992,565,995.34,566.91,995.34,569.31Z" transform="translate(-881.99 -440)"/><path class="cls-2" d="M979.68,564.17c0,2.39-1.49,4.32-3.32,4.32s-3.32-1.93-3.32-4.32,1.49-4.33,3.32-4.33S979.68,561.78,979.68,564.17Z" transform="translate(-881.99 -440)"/><rect class="cls-6" x="67.37" y="8.98" width="4.92" height="22.7"/><rect class="cls-6" x="40.81" y="14.65" width="4.92" height="22.7"/><rect class="cls-6" x="93.92" y="14.65" width="4.92" height="22.7"/><rect class="cls-6" x="17.58" y="29.55" width="4.92" height="22.71"/><rect class="cls-6" x="120.48" y="29.55" width="4.92" height="22.71"/><path class="cls-7" d="M931.63,623.63c0-9.56,5.94-17.32,13.27-17.32s13.28,7.76,13.28,17.32-5.95,17.31-13.28,17.31S931.63,633.19,931.63,623.63Z" transform="translate(-881.99 -440)"/><path class="cls-8" d="M944.9,645.21c-9.13,0-16.55-9.67-16.55-21.58S935.77,602,944.9,602s16.56,9.68,16.56,21.59S954,645.21,944.9,645.21Zm0-34.62c-5.51,0-10,5.85-10,13s4.49,13,10,13,10-5.84,10-13S950.42,610.59,944.9,610.59Z" transform="translate(-881.99 -440)"/></svg>