<svg id="Layer_1" data-name="Layer 1" xmlns="http://www.w3.org/2000/svg" viewBox="0 0 1017.87 297.56"><defs><style>.cls-1{fill:#bdaa83;}.cls-2{fill:#a58a64;}.cls-3{fill:#331f18;}.cls-4,.cls-5{font-size:133.04px;font-family:GothamBlack, Gotham Black;}.cls-4{fill:#c69c6d;stroke:#c69c6d;stroke-miterlimit:10;}.cls-5{fill:#a67c52;}</style></defs><title>petzone_logopng</title><path class="cls-1" d="M261.91,263.9a24,24,0,1,0,24,24A24,24,0,0,0,261.91,263.9Z" transform="translate(-33.13 -33.48)"/><path class="cls-2" d="M261.91,263.9a24.16,24.16,0,0,0-6.58.93,24,24,0,0,1,0,46.13,24,24,0,1,0,6.58-47.06Z" transform="translate(-33.13 -33.48)"/><path class="cls-1" d="M340.61,192.11a24,24,0,1,0,24,24A24,24,0,0,0,340.61,192.11Z" transform="translate(-33.13 -33.48)"/><path class="cls-2" d="M340.61,192.11a23.83,23.83,0,0,0-6.58.94,24,24,0,0,1,0,46.12,24,24,0,1,0,6.58-47.06Z" transform="translate(-33.13 -33.48)"/><path class="cls-1" d="M155,263.9a24,24,0,1,0,24,24A24,24,0,0,0,155,263.9Z" transform="translate(-33.13 -33.48)"/><path class="cls-1" d="M76.28,192.11a24,24,0,1,0,24,24A24,24,0,0,0,76.28,192.11Z" transform="translate(-33.13 -33.48)"/><path class="cls-1" d="M261.76,74.72A75.4,75.4,0,0,0,155.13,181.34l47.39,47.39a8.44,8.44,0,0,0,11.85,0l47.39-47.39a75.4,75.4,0,0,0,0-106.62Zm-53.32,88.93A35.62,35.62,0,1,1,244.07,128,35.66,35.66,0,0,1,208.44,163.65Z" transform="translate(-33.13 -33.48)"/><path class="cls-2" d="M261.76,74.72a75.49,75.49,0,0,0-85.32-15,76.31,76.31,0,0,1,12.87-1.11,75.4,75.4,0,0,1,53.31,128.71l-40.75,40.75.65.65a8.44,8.44,0,0,0,11.85,0l47.39-47.39a75.4,75.4,0,0,0,0-106.62Z" transform="translate(-33.13 -33.48)"/><path class="cls-3" d="M261.91,244.75a43.15,43.15,0,1,0,43.15,43.15A43.2,43.2,0,0,0,261.91,244.75Zm0,67.15a24,24,0,1,1,24-24A24,24,0,0,1,261.91,311.9Z" transform="translate(-33.13 -33.48)"/><path class="cls-3" d="M340.61,173a43.15,43.15,0,1,0,43.15,43.15A43.2,43.2,0,0,0,340.61,173Zm0,67.15a24,24,0,1,1,24-24A24,24,0,0,1,340.61,240.11Z" transform="translate(-33.13 -33.48)"/><path class="cls-3" d="M155,244.75a43.15,43.15,0,1,0,43.15,43.15A43.2,43.2,0,0,0,155,244.75Zm0,67.15a24,24,0,1,1,24-24A24,24,0,0,1,155,311.9Z" transform="translate(-33.13 -33.48)"/><path class="cls-3" d="M76.28,173a43.15,43.15,0,1,0,43.15,43.15A43.2,43.2,0,0,0,76.28,173Zm0,67.15a24,24,0,1,1,24-24A24,24,0,0,1,76.28,240.11Z" transform="translate(-33.13 -33.48)"/><path class="cls-3" d="M275.3,61.18a94.54,94.54,0,0,0-133.71,133.7L189,242.27a27.58,27.58,0,0,0,38.93,0l47.39-47.39a94.54,94.54,0,0,0,0-133.7ZM261.76,181.34l-47.39,47.39a8.44,8.44,0,0,1-11.85,0l-47.39-47.39a75.4,75.4,0,1,1,106.63,0Z" transform="translate(-33.13 -33.48)"/><path class="cls-3" d="M208.44,73.26A54.77,54.77,0,1,0,263.21,128,54.85,54.85,0,0,0,208.44,73.26Zm0,90.39A35.62,35.62,0,1,1,244.07,128,35.66,35.66,0,0,1,208.44,163.65Z" transform="translate(-33.13 -33.48)"/><path class="cls-2" d="M155,263.9a24.21,24.21,0,0,1,6.58.93,24,24,0,0,0,0,46.13A24,24,0,1,1,155,263.9Z" transform="translate(-33.13 -33.48)"/><path class="cls-2" d="M76.28,192.11a23.89,23.89,0,0,1,6.58.94,24,24,0,0,0,0,46.12,24,24,0,1,1-6.58-47.06Z" transform="translate(-33.13 -33.48)"/><text class="cls-4" transform="translate(391.34 190.25)">Pet Zone</text><text class="cls-5" transform="translate(408.7 190.25)">Pet Zone</text></svg>