<svg id="Layer_2" data-name="Layer 2" xmlns="http://www.w3.org/2000/svg" viewBox="0 0 509.3 532.04"><defs><style>.cls-1{fill:#e49a61;}.cls-2{fill:#f1bb6b;}</style></defs><title>shit</title><path class="cls-1" d="M906.46,452.72a1.79,1.79,0,0,0-1.67,1.68,1.76,1.76,0,0,0,1.67,1.86l179.45,9.18c36.18,1.86,71.92,63.45,71.92,63.45s-7.88-79.38-71.92-84.73l-42.8-2.19a82.17,82.17,0,0,1-24.1,5Z" transform="translate(-712.24 -262.96)"/><path class="cls-1" d="M852.41,624.64a1.77,1.77,0,0,0,1.69,1.87l295.71,15.13c36.89,1.89,66.55,38.47,71.7,72.11.17-47.78-27.23-91.12-71.7-93.39l-122.37-6.26L854.1,623A1.77,1.77,0,0,0,852.41,624.64Z" transform="translate(-712.24 -262.96)"/><path class="cls-1" d="M736.09,732.36,1141,711.64a1.77,1.77,0,0,0,0-3.54l-173.34-8.87L736.09,711.08c-24,2.11-23.58,42-23.58,42S726.71,732.85,736.09,732.36Z" transform="translate(-712.24 -262.96)"/><path class="cls-1" d="M926.45,369.35c70.65-.92,83.52-53.83,83.52-85.11,43.36,0,84.37,74.38,84.37,74.38s-6.91-93.34-95-95.66c0,31.28-2.24,83.61-72.88,85.11-79.1,1.68-86.25,95.69-86.25,95.69S883.24,369.91,926.45,369.35Z" transform="translate(-712.24 -262.96)"/><path class="cls-1" d="M834.51,553.71l240.86-12.33a1.77,1.77,0,0,0,1.68-1.67,1.79,1.79,0,0,0-1.68-1.87l-162-8.29c-2.56-.13-5.08-.4-7.58-.77l-71.24,3.65c-56,3.86-68.59,81.46-68.59,81.46S800.1,555.48,834.51,553.71Z" transform="translate(-712.24 -262.96)"/><path class="cls-2" d="M1220.71,705.14c-5.15-33.65-34-61.61-70.9-63.5L854.1,626.51a1.77,1.77,0,0,1,0-3.53l173.34-8.88,61.43-3.14c38-1.94,69.45-32.45,69.82-70.49,0-.28,0-.56,0-.86s0-.61,0-.91a68.92,68.92,0,0,0-.86-9.81c-5.23-34.86-35.74-61.59-71.92-63.45l-179.45-9.18a1.76,1.76,0,0,1-1.67-1.86,1.79,1.79,0,0,1,1.67-1.68L1019,447a82.17,82.17,0,0,0,24.1-5c27.91-10.22,49.17-34.94,51.69-65.53q.29-3.51.29-7.08A85.71,85.71,0,0,0,1010,284.24c0,31.28-12.87,84.19-83.52,85.11-43.21.56-80.8,32.33-86.25,74.41-.32,2.38-.58,4.78-.67,7.23-.11,2.63-.1,5.24,0,7.81,1.82,36.19,30.79,64.76,66.19,70,2.5.37,5,.64,7.58.77l162,8.29a1.79,1.79,0,0,1,1.68,1.87,1.77,1.77,0,0,1-1.68,1.67L834.51,553.71c-34.41,1.77-63.36,27.1-68.59,60.18a67.22,67.22,0,0,0-.92,10v.85a67.8,67.8,0,0,0,64.33,67.41l138.29,7.08L1141,708.1a1.77,1.77,0,0,1,0,3.54L736.09,732.36a25.57,25.57,0,0,0-21.36,13.83,22.52,22.52,0,0,0-2,15.15,44.57,44.57,0,0,0,1.4,4.89C720.32,784,738.11,795,756.88,795h380.59c35.8,0,68.88-22,80.25-55.9.18-.57.37-1.14.55-1.71A71.08,71.08,0,0,0,1220.71,705.14Z" transform="translate(-712.24 -262.96)"/><path class="cls-2" d="M801.65,309.91a27.78,27.78,0,0,1,8.21-19.79,8.32,8.32,0,0,0-11.76-11.76,44.61,44.61,0,0,0,0,63.1,28,28,0,0,1,0,39.57,8.32,8.32,0,1,0,11.76,11.76,44.69,44.69,0,0,0,0-63.09A27.79,27.79,0,0,1,801.65,309.91Z" transform="translate(-712.24 -262.96)"/><path class="cls-2" d="M730.74,447.21a27.8,27.8,0,0,1,8.21-19.8,8.31,8.31,0,0,0-11.76-11.75,44.58,44.58,0,0,0,0,63.09,28,28,0,0,1,0,39.58A8.31,8.31,0,1,0,739,530.08,44.66,44.66,0,0,0,739,467,27.79,27.79,0,0,1,730.74,447.21Z" transform="translate(-712.24 -262.96)"/><path class="cls-2" d="M1196.55,412.9a28,28,0,0,1,0-39.58,8.31,8.31,0,1,0-11.76-11.75,44.59,44.59,0,0,0,0,63.08,28,28,0,0,1,0,39.58A8.31,8.31,0,1,0,1196.55,476,44.68,44.68,0,0,0,1196.55,412.9Z" transform="translate(-712.24 -262.96)"/></svg>